<svg width="462" height="247" viewBox="0 0 462 247" fill="none" xmlns="http://www.w3.org/2000/svg">
<path d="M12.158 237C8.91171 237 6.08886 235.8 3.68943 233.401C1.29 231.001 0.0902863 228.179 0.0902863 224.932V94.5163C0.0902863 91.27 1.29 88.4471 3.68943 86.0477C6.08886 83.6483 8.91171 82.4486 12.158 82.4486H24.2257C27.8954 82.4486 31.2123 83.4366 34.1763 85.4126C37.1403 87.3886 39.328 90.0703 40.7394 93.4577L73.5551 173.274C73.5551 173.415 73.6257 173.486 73.7669 173.486C73.908 173.486 73.9786 173.415 73.9786 173.274L106.794 93.4577C108.206 90.0703 110.393 87.3886 113.357 85.4126C116.321 83.4366 119.638 82.4486 123.308 82.4486H136.223C139.469 82.4486 142.292 83.6483 144.691 86.0477C147.091 88.4471 148.29 91.27 148.29 94.5163V224.932C148.29 228.179 147.091 231.001 144.691 233.401C142.292 235.8 139.469 237 136.223 237H126.06C122.814 237 119.991 235.8 117.592 233.401C115.333 231.001 114.204 228.179 114.204 224.932V142.575C114.204 142.434 114.134 142.364 113.993 142.364C113.71 142.364 113.569 142.434 113.569 142.575L93.2446 190.635C91.8331 194.022 89.5749 196.704 86.4697 198.68C83.5057 200.656 80.1889 201.644 76.5191 201.644H71.0146C67.3449 201.644 63.9574 200.656 60.8523 198.68C57.8883 196.704 55.7006 194.022 54.2891 190.635L33.9646 142.575C33.9646 142.434 33.8234 142.364 33.5411 142.364C33.4 142.364 33.3294 142.434 33.3294 142.575V224.932C33.3294 228.179 32.1297 231.001 29.7303 233.401C27.472 235.8 24.7197 237 21.4734 237H12.158Z" fill="#39B689"/>
<path d="M235.424 113.782L219.969 174.544C219.828 174.968 219.898 175.391 220.181 175.815C220.604 176.097 221.027 176.238 221.451 176.238H249.821C250.244 176.238 250.597 176.097 250.879 175.815C251.303 175.391 251.444 174.968 251.303 174.544L235.847 113.782C235.847 113.641 235.777 113.571 235.636 113.571C235.495 113.571 235.424 113.641 235.424 113.782ZM178.896 237C175.932 237 173.533 235.8 171.698 233.401C170.004 231.001 169.651 228.39 170.639 225.567L213.406 93.8811C214.535 90.4937 216.511 87.7414 219.334 85.6243C222.298 83.5071 225.544 82.4486 229.073 82.4486H243.046C246.715 82.4486 250.032 83.5071 252.996 85.6243C255.96 87.7414 257.936 90.4937 258.924 93.8811L301.479 225.567C302.467 228.39 302.043 231.001 300.209 233.401C298.515 235.8 296.186 237 293.222 237H279.037C275.509 237 272.333 235.941 269.51 233.824C266.687 231.566 264.852 228.743 264.005 225.356L258.924 205.243C258.783 204.114 258.077 203.549 256.807 203.549H214.464C213.335 203.549 212.629 204.114 212.347 205.243L207.266 225.356C206.419 228.743 204.584 231.566 201.761 233.824C198.939 235.941 195.763 237 192.234 237H178.896Z" fill="#F2F535"/>
<path d="M331 224.267C340.322 185.862 329.92 142.609 351.507 109.425C383.5 64 430.5 116 401 154.5C447 143 464.5 198.5 437.639 224.267C418.996 240.299 388.794 229.859 346.66 236.571" stroke="#FF326F" stroke-width="20" stroke-linecap="round" stroke-linejoin="round"/>
</svg>
