<svg width="463" height="247" viewBox="0 0 463 247" fill="none" xmlns="http://www.w3.org/2000/svg">
<path d="M11.6 224C8.53333 224 5.86667 222.867 3.6 220.6C1.33333 218.333 0.200001 215.667 0.200001 212.6V89.4C0.200001 86.3333 1.33333 83.6667 3.6 81.4C5.86667 79.1333 8.53333 78 11.6 78H23C26.4667 78 29.6 78.9333 32.4 80.8C35.2 82.6667 37.2667 85.2 38.6 88.4L69.6 163.8C69.6 163.933 69.6667 164 69.8 164C69.9333 164 70 163.933 70 163.8L101 88.4C102.333 85.2 104.4 82.6667 107.2 80.8C110 78.9333 113.133 78 116.6 78H128.8C131.867 78 134.533 79.1333 136.8 81.4C139.067 83.6667 140.2 86.3333 140.2 89.4V212.6C140.2 215.667 139.067 218.333 136.8 220.6C134.533 222.867 131.867 224 128.8 224H119.2C116.133 224 113.467 222.867 111.2 220.6C109.067 218.333 108 215.667 108 212.6V134.8C108 134.667 107.933 134.6 107.8 134.6C107.533 134.6 107.4 134.667 107.4 134.8L88.2 180.2C86.8667 183.4 84.7333 185.933 81.8 187.8C79 189.667 75.8667 190.6 72.4 190.6H67.2C63.7333 190.6 60.5333 189.667 57.6 187.8C54.8 185.933 52.7333 183.4 51.4 180.2L32.2 134.8C32.2 134.667 32.0667 134.6 31.8 134.6C31.6667 134.6 31.6 134.667 31.6 134.8V212.6C31.6 215.667 30.4667 218.333 28.2 220.6C26.0667 222.867 23.4667 224 20.4 224H11.6Z" fill="#39B689"/>
<path d="M222.513 107.6L207.913 165C207.779 165.4 207.846 165.8 208.112 166.2C208.513 166.467 208.913 166.6 209.313 166.6H236.113C236.513 166.6 236.846 166.467 237.113 166.2C237.513 165.8 237.646 165.4 237.513 165L222.913 107.6C222.913 107.467 222.846 107.4 222.713 107.4C222.579 107.4 222.513 107.467 222.513 107.6ZM169.113 224C166.313 224 164.046 222.867 162.313 220.6C160.713 218.333 160.379 215.867 161.313 213.2L201.713 88.8C202.779 85.6 204.646 83 207.313 81C210.113 79 213.179 78 216.513 78H229.713C233.179 78 236.313 79 239.113 81C241.913 83 243.779 85.6 244.713 88.8L284.913 213.2C285.846 215.867 285.446 218.333 283.713 220.6C282.113 222.867 279.913 224 277.113 224H263.713C260.379 224 257.379 223 254.713 221C252.046 218.867 250.313 216.2 249.513 213L244.713 194C244.579 192.933 243.913 192.4 242.713 192.4H202.713C201.646 192.4 200.979 192.933 200.713 194L195.913 213C195.113 216.2 193.379 218.867 190.713 221C188.046 223 185.046 224 181.712 224H169.113Z" fill="#F2F535"/>
<path d="M315 211.267C324.322 172.862 313.92 129.609 335.507 96.4246C367.5 51 414.5 103 385 141.5C431 130 448.5 185.5 421.639 211.267C402.996 227.299 372.794 216.859 330.66 223.571" stroke="#FF326F" stroke-width="20" stroke-linecap="round" stroke-linejoin="round"/>
</svg>
