<svg width="407" height="140" viewBox="0 0 407 140" fill="none" xmlns="http://www.w3.org/2000/svg">
<path d="M19.1523 104.383L19.9336 118.641C19.9336 119.422 19.8685 120.854 19.7383 122.938C19.7383 125.021 18.957 126.909 17.3945 128.602C15.9622 130.164 14.1393 130.945 11.9258 130.945C9.84245 130.945 8.21484 130.88 7.04297 130.75C2.74609 130.75 0.597656 128.862 0.597656 125.086C0.597656 121.961 2.02995 109.396 4.89453 87.3906C7.75911 65.2552 9.58203 50.9974 10.3633 44.6172C11.1445 38.237 11.7956 32.8984 12.3164 28.6016C12.9674 24.1745 13.4232 20.9193 13.6836 18.8359C13.944 16.7526 14.3346 14.6693 14.8555 12.5859C15.3763 10.5026 16.1576 8.8099 17.1992 7.50781C19.1523 5.03385 22.9284 3.79688 28.5273 3.79688C37.9023 8.48438 47.5378 21.7656 57.4336 43.6406C64.4648 59.2656 69.1523 69.1615 71.4961 73.3281C73.8398 77.4948 76.1185 80.3594 78.332 81.9219L117.395 13.9531C120.129 12 122.212 11.0234 123.645 11.0234C127.811 11.0234 131.001 12.9115 133.215 16.6875C135.428 20.4635 137.251 25.0859 138.684 30.5547C140.246 35.8932 141.548 41.8177 142.59 48.3281C143.762 54.8385 144.738 61.6745 145.52 68.8359C146.431 75.8672 147.277 82.7682 148.059 89.5391C149.882 105.815 151.249 116.036 152.16 120.203C153.202 124.37 153.723 127.365 153.723 129.188C153.723 130.88 153.137 132.573 151.965 134.266C150.793 135.828 149.165 136.609 147.082 136.609C144.999 136.609 142.915 135.828 140.832 134.266C138.749 132.573 137.447 130.555 136.926 128.211C136.535 125.737 136.079 122.547 135.559 118.641C135.168 114.734 134.647 110.372 133.996 105.555C133.345 100.607 132.694 95.4635 132.043 90.125C131.392 84.6562 130.741 79.4479 130.09 74.5C129.439 69.5521 128.853 65.1901 128.332 61.4141C127.811 57.5078 127.421 54.5781 127.16 52.625C127.16 50.0208 127.095 47.612 126.965 45.3984C126.835 43.1849 126.314 41.8177 125.402 41.2969C124.491 40.776 123.059 41.4271 121.105 43.25C119.283 44.9427 116.678 48.4583 113.293 53.7969C106.001 65.125 95.4544 84.2005 81.6523 111.023C79.8294 114.279 77.4206 114.995 74.4258 113.172C70.9102 111.219 67.9154 106.206 65.4414 98.1328L29.5039 21.7656C26.3789 28.0156 23.5143 48.7188 20.9102 83.875C20.5195 88.1719 20.2591 91.8177 20.1289 94.8125C19.4779 98.0677 19.1523 101.258 19.1523 104.383Z" fill="#39B689"/>
<path d="M257.785 65.5156H263.254C265.467 65.5156 267.551 65.7109 269.504 66.1016C271.587 66.4922 272.629 67.9245 272.629 70.3984C273.54 75.6068 270.48 78.1458 263.449 78.0156C261.496 77.8854 259.673 77.7552 257.98 77.625C256.418 77.4948 255.116 77.4948 254.074 77.625C253.033 77.625 252.577 77.9505 252.707 78.6016C254.009 82.3776 255.376 86.6094 256.809 91.2969C258.371 95.9844 260.064 100.672 261.887 105.359C266.574 116.948 271.001 125.281 275.168 130.359C272.954 133.094 270.35 135.372 267.355 137.195C264.491 139.018 262.928 139.93 262.668 139.93C262.538 139.93 262.408 139.865 262.277 139.734L234.738 81.7266L181.418 94.8125L179.465 103.016C175.689 117.99 171.457 128.406 166.77 134.266C165.988 135.568 164.361 135.698 161.887 134.656C157.72 133.094 155.637 131.792 155.637 130.75C155.637 130.49 157.004 126.714 159.738 119.422C162.473 112.13 165.207 104.773 167.941 97.3516C170.806 89.7995 173.736 81.9219 176.73 73.7188C179.855 65.5156 182.785 57.7031 185.52 50.2812C188.254 42.8594 190.728 36.2188 192.941 30.3594C195.155 24.3698 196.717 20.0729 197.629 17.4688C198.54 14.7344 199.126 12.3906 199.387 10.4375C199.777 8.35417 200.298 6.59635 200.949 5.16406C202.251 2.16927 205.507 0.671875 210.715 0.671875C216.314 3.79688 220.611 7.89844 223.605 12.9766C226.73 17.9245 229.335 23.263 231.418 28.9922C233.632 34.7214 235.78 40.5156 237.863 46.375C239.947 52.2344 242.746 57.5729 246.262 62.3906C247.434 64.2135 249.191 65.1901 251.535 65.3203C253.879 65.4505 255.962 65.5156 257.785 65.5156ZM208.957 23.3281C207.915 31.2708 205.572 39.4089 201.926 47.7422C198.28 56.0755 195.35 62.5859 193.137 67.2734C190.923 71.8307 189.035 76.0625 187.473 79.9688C196.327 79.9688 207.199 77.3646 220.09 72.1562C223.345 70.724 226.47 69.4219 229.465 68.25C223.345 42.0781 216.509 27.1042 208.957 23.3281Z" fill="#F2F535"/>
<path d="M281.379 7.3125C291.014 5.22917 300.129 4.1875 308.723 4.1875C317.316 4.1875 324.934 4.51302 331.574 5.16406C338.345 5.8151 345.116 7.05208 351.887 8.875C366.21 12.9115 375.064 18.3802 378.449 25.2812C379.361 26.7135 379.816 28.4062 379.816 30.3594C379.816 36.0885 374.803 42.2734 364.777 48.9141C358.137 53.3411 348.632 57.8333 336.262 62.3906C366.6 64.0833 387.173 68.5104 397.98 75.6719C403.97 79.4479 406.965 83.875 406.965 88.9531C406.965 95.9844 402.017 103.276 392.121 110.828C381.314 118.901 367.512 125.607 350.715 130.945C335.22 135.893 320.832 138.367 307.551 138.367C297.395 138.367 288.671 136.87 281.379 133.875C281.118 125.542 280.793 116.948 280.402 108.094C279.361 88.4323 278.84 71.8958 278.84 58.4844C278.84 44.9427 279.296 30.8802 280.207 16.2969C278.775 16.2969 277.473 16.1667 276.301 15.9062C275.129 15.5156 274.543 14.2135 274.543 12C274.543 8.875 276.822 7.3125 281.379 7.3125ZM298.957 124.109C319.921 122.938 337.108 120.464 350.52 116.688C363.931 112.781 373.566 108.615 379.426 104.188C385.415 99.6302 388.41 95.2682 388.41 91.1016C388.41 85.6328 384.504 81.2708 376.691 78.0156C368.228 74.6302 356.965 72.9375 342.902 72.9375C328.97 72.9375 312.759 74.8255 294.27 78.6016L298.957 124.109ZM317.121 16.8828H312.238C301.561 16.8828 295.572 17.9896 294.27 20.2031L292.316 59.4609C304.035 59.4609 318.293 56.6615 335.09 51.0625C346.027 47.2865 354.035 43.1198 359.113 38.5625C361.717 36.2188 363.02 33.8099 363.02 31.3359C363.02 28.862 362.043 26.8438 360.09 25.2812C358.267 23.5885 355.858 22.2214 352.863 21.1797C349.999 20.138 346.743 19.3568 343.098 18.8359C339.582 18.1849 336.132 17.7292 332.746 17.4688C327.538 17.0781 322.329 16.8828 317.121 16.8828Z" fill="#FF326F"/>
</svg>
