<svg width="466" height="247" viewBox="0 0 466 247" fill="none" xmlns="http://www.w3.org/2000/svg">
<path d="M149.714 62.2594V213H120.497V130.643L85.776 213H64.3929L29.46 131.702V213H0.455144V62.2594H26.7077L75.402 173.409L123.673 62.2594H149.714Z" fill="#39B689"/>
<path d="M280.889 179.549H210.388L195.991 213H162.752L231.983 62.2594H258.659L327.889 213H295.285L280.889 179.549ZM270.091 154.355L245.744 97.8274L221.397 154.355H270.091Z" fill="#F2F535"/>
<path d="M437.513 135.089C446.264 137.63 453.039 142.076 457.837 148.427C462.636 154.779 465.036 162.541 465.036 171.716C465.036 184.419 460.307 194.51 450.851 201.991C441.394 209.33 428.55 213 412.319 213H340.759V62.2594H410.202C425.869 62.2594 438.219 65.788 447.252 72.8451C456.426 79.7611 461.013 89.2883 461.013 101.427C461.013 109.331 458.896 116.247 454.662 122.175C450.569 128.103 444.852 132.407 437.513 135.089ZM372.94 123.657H404.697C413.166 123.657 419.447 122.245 423.54 119.422C427.774 116.458 429.891 111.942 429.891 105.873C429.891 99.6623 427.774 95.0751 423.54 92.1111C419.447 89.1471 413.166 87.6651 404.697 87.6651H372.94V123.657ZM408.508 187.594C417.4 187.594 423.822 186.112 427.774 183.148C431.867 180.043 433.914 175.174 433.914 168.54C433.914 161.765 431.867 156.825 427.774 153.72C423.822 150.615 417.4 149.062 408.508 149.062H372.94V187.594H408.508Z" fill="#FF326F"/>
</svg>
